# xmcd
#
# Track frame offsets:
#	150
#	16582
#	34590
#	50780
#	69835
#	85470
#	98735
#	111147
#	126880
#	141557
#	158997
#	172992
#	188482
#	207902
#	224310
#	238527
#	253947
#
# Disc length: 3564
#
# Revision: 1
# Processed by: cddbd v1.5.1PL0 Copyright (c) Steve Scherf et al.
# Submitted via: VisiTrax 2.9.5.180 - For more info visit www.synapsa.com
# Normalized: r0:DSETVAR1
#
DISCID=eb0dea11
DTITLE=Various Artist - CDX 82 May 1994
DYEAR=1994
DGENRE=
TTITLE0=Jesse HUnter - By the way she's looking
TTITLE1=Katey Sagal - Can't hurry the harvest
TTITLE2=Emmylou Harris - Cresent city
TTITLE3=Tim McGraw - Don't take the girl
TTITLE4=Tanya Tucker - Hangin' in
TTITLE5=Pearl River - Hello goodbye
TTITLE6=Tish Hinojosa - I'm not through loving you yet
TTITLE7=Martina McBride - Independence day
TTITLE8=Diamond Rio - Love a little stronger
TTITLE9=Marty Stuart - Love and luck
TTITLE10=Michael James - Love will
TTITLE11=Ballamy Brothers - On a summer night
TTITLE12=Garth Brooks - One night a day
TTITLE13=Carlene Carter - Something already gone
TTITLE14=Little Texas - Stop on a dime
TTITLE15=Lee ray Parnell - Brooks and Dunn - Take these chains from my heart
TTITLE16=Dennis Robbins - Travelin' music
EXTD=
EXTT0=
EXTT1=
EXTT2=
EXTT3=
EXTT4=
EXTT5=
EXTT6=
EXTT7=
EXTT8=
EXTT9=
EXTT10=
EXTT11=
EXTT12=
EXTT13=
EXTT14=
EXTT15=
EXTT16=
PLAYORDER=
